<svg width="1010" height="300" viewBox="0 0 1010 300" fill="none" xmlns="http://www.w3.org/2000/svg">
<circle cx="98.5" cy="150.5" r="72.5" fill="#7E56C2"/>
<path d="M109.424 167.555L99.5106 151.202L89.6123 167.555C88.6255 169.197 85.5882 172.127 81.1787 170.869L60.0408 164.855V177.435C60.0408 179.69 61.5826 181.654 63.772 182.191L97.1054 190.49C98.678 190.874 100.328 190.874 101.885 190.49L135.249 182.191C137.438 181.638 138.98 179.675 138.98 177.435V164.855L117.858 170.854C113.464 172.112 110.426 169.212 109.424 167.555ZM80.1149 134.281C79.9145 133.499 79.7757 132.701 79.7757 131.872C79.7757 126.457 84.2006 122.054 89.6431 122.054C95.0856 122.054 99.5106 126.457 99.5106 131.872C99.5106 133.591 99.0326 135.171 98.2463 136.582L99.5106 136.735L123.454 133.713L128.959 118.633C129.421 117.36 128.758 115.949 127.479 115.488L118.922 112.389C117.642 111.929 116.224 112.589 115.761 113.862L109.332 131.412C109.07 120.781 100.389 112.236 89.6431 112.236C78.7427 112.236 69.9083 121.026 69.9083 131.872C69.9083 132.256 70.0008 132.624 70.0162 133.008L80.1149 134.281ZM58.3757 138.162L50.4355 153.933C49.7263 155.344 50.4818 157.032 51.9927 157.461L82.5047 166.129C83.5993 166.436 84.7711 165.975 85.357 165.009L99.5106 141.691L60.9351 136.797C59.8712 136.674 58.8537 137.211 58.3757 138.162V138.162ZM148.586 153.933L140.645 138.162C140.167 137.211 139.134 136.659 138.071 136.797L99.5106 141.691L113.649 165.024C114.235 165.991 115.406 166.451 116.501 166.144L147.013 157.476C148.539 157.032 149.279 155.344 148.586 153.933Z" fill="white"/>
<path d="M241.458 165.071C241.458 157.124 239.493 151.01 235.563 146.731C231.633 142.452 226.393 140.312 219.843 140.312C216.175 140.312 213.293 140.443 211.197 140.705C209.188 140.967 207.572 141.273 206.35 141.622V184.59C207.834 185.813 209.974 186.992 212.769 188.127C215.563 189.262 218.62 189.83 221.939 189.83C225.432 189.83 228.401 189.219 230.847 187.996C233.379 186.686 235.432 184.939 237.004 182.756C238.576 180.485 239.711 177.865 240.41 174.896C241.108 171.839 241.458 168.564 241.458 165.071ZM254.165 165.071C254.165 170.224 253.466 174.983 252.069 179.35C250.759 183.717 248.794 187.472 246.174 190.616C243.554 193.76 240.322 196.205 236.48 197.952C232.724 199.699 228.401 200.572 223.511 200.572C219.581 200.572 216.087 200.048 213.031 199C210.061 197.952 207.834 196.948 206.35 195.987V223.235H194.167V132.976C197.049 132.277 200.629 131.535 204.909 130.749C209.275 129.876 214.297 129.439 219.974 129.439C225.214 129.439 229.93 130.269 234.122 131.928C238.314 133.587 241.894 135.945 244.864 139.002C247.833 142.059 250.104 145.814 251.676 150.268C253.335 154.635 254.165 159.569 254.165 165.071ZM261.526 211.707C262.487 212.144 263.71 212.537 265.194 212.886C266.766 213.323 268.295 213.541 269.779 213.541C274.583 213.541 278.338 212.449 281.045 210.266C283.753 208.17 286.198 204.72 288.381 199.917C282.879 189.437 277.727 178.346 272.923 166.643C268.207 154.853 264.277 142.932 261.133 130.88H274.233C275.194 134.81 276.329 139.046 277.639 143.587C279.037 148.128 280.565 152.801 282.224 157.604C283.884 162.407 285.674 167.211 287.595 172.014C289.517 176.817 291.525 181.446 293.621 185.9C296.94 176.73 299.822 167.647 302.267 158.652C304.713 149.657 307.027 140.399 309.21 130.88H321.786C318.642 143.718 315.149 156.076 311.306 167.953C307.464 179.743 303.315 190.791 298.861 201.096C297.115 205.026 295.281 208.388 293.359 211.183C291.525 214.065 289.473 216.423 287.202 218.257C284.932 220.091 282.355 221.445 279.473 222.318C276.679 223.191 273.491 223.628 269.91 223.628C268.95 223.628 267.945 223.541 266.897 223.366C265.849 223.279 264.801 223.104 263.753 222.842C262.793 222.667 261.876 222.449 261.002 222.187C260.216 221.925 259.649 221.707 259.299 221.532L261.526 211.707ZM378.649 145.29C377.165 144.067 375.025 142.888 372.23 141.753C369.436 140.618 366.379 140.05 363.06 140.05C359.567 140.05 356.554 140.705 354.021 142.015C351.576 143.238 349.567 144.984 347.995 147.255C346.423 149.438 345.288 152.058 344.589 155.115C343.891 158.172 343.541 161.447 343.541 164.94C343.541 172.887 345.506 179.044 349.436 183.411C353.366 187.69 358.606 189.83 365.156 189.83C368.475 189.83 371.226 189.699 373.409 189.437C375.68 189.088 377.427 188.738 378.649 188.389V145.29ZM378.649 99.44L390.832 97.344V197.035C388.038 197.821 384.457 198.607 380.09 199.393C375.724 200.179 370.702 200.572 365.025 200.572C359.785 200.572 355.069 199.742 350.877 198.083C346.685 196.424 343.105 194.066 340.135 191.009C337.166 187.952 334.852 184.241 333.192 179.874C331.62 175.42 330.834 170.442 330.834 164.94C330.834 159.7 331.489 154.897 332.799 150.53C334.197 146.163 336.205 142.408 338.825 139.264C341.445 136.12 344.633 133.675 348.388 131.928C352.231 130.181 356.598 129.308 361.488 129.308C365.418 129.308 368.868 129.832 371.837 130.88C374.894 131.928 377.165 132.932 378.649 133.893V99.44ZM434.831 190.223C437.713 190.223 440.246 190.179 442.429 190.092C444.7 189.917 446.577 189.655 448.062 189.306V169.001C447.189 168.564 445.748 168.215 443.739 167.953C441.818 167.604 439.46 167.429 436.665 167.429C434.831 167.429 432.866 167.56 430.77 167.822C428.761 168.084 426.884 168.652 425.137 169.525C423.478 170.311 422.08 171.446 420.945 172.931C419.81 174.328 419.242 176.206 419.242 178.564C419.242 182.931 420.639 185.987 423.434 187.734C426.229 189.393 430.028 190.223 434.831 190.223ZM433.783 129.177C438.674 129.177 442.778 129.832 446.097 131.142C449.503 132.365 452.21 134.155 454.219 136.513C456.315 138.784 457.8 141.535 458.673 144.766C459.546 147.91 459.983 151.403 459.983 155.246V197.821C458.935 197.996 457.45 198.258 455.529 198.607C453.695 198.869 451.599 199.131 449.241 199.393C446.883 199.655 444.307 199.873 441.512 200.048C438.805 200.31 436.097 200.441 433.39 200.441C429.547 200.441 426.01 200.048 422.779 199.262C419.548 198.476 416.753 197.253 414.395 195.594C412.037 193.847 410.203 191.577 408.893 188.782C407.583 185.987 406.928 182.625 406.928 178.695C406.928 174.94 407.67 171.708 409.155 169.001C410.727 166.294 412.823 164.11 415.443 162.451C418.063 160.792 421.12 159.569 424.613 158.783C428.106 157.997 431.774 157.604 435.617 157.604C436.84 157.604 438.106 157.691 439.416 157.866C440.726 157.953 441.949 158.128 443.084 158.39C444.307 158.565 445.355 158.739 446.228 158.914C447.101 159.089 447.713 159.22 448.062 159.307V155.901C448.062 153.892 447.844 151.927 447.407 150.006C446.97 147.997 446.184 146.251 445.049 144.766C443.914 143.194 442.342 141.971 440.333 141.098C438.412 140.137 435.879 139.657 432.735 139.657C428.718 139.657 425.181 139.963 422.124 140.574C419.155 141.098 416.928 141.666 415.443 142.277L414.002 132.19C415.574 131.491 418.194 130.836 421.862 130.225C425.53 129.526 429.504 129.177 433.783 129.177ZM480.217 132.845C483.012 132.146 486.724 131.404 491.352 130.618C495.981 129.832 501.308 129.439 507.334 129.439C512.749 129.439 517.247 130.225 520.827 131.797C524.408 133.282 527.246 135.421 529.342 138.216C531.526 140.923 533.054 144.198 533.927 148.041C534.801 151.884 535.237 156.119 535.237 160.748V199H523.054V163.368C523.054 159.176 522.749 155.595 522.137 152.626C521.613 149.657 520.696 147.255 519.386 145.421C518.076 143.587 516.33 142.277 514.146 141.491C511.963 140.618 509.256 140.181 506.024 140.181C504.714 140.181 503.361 140.225 501.963 140.312C500.566 140.399 499.212 140.53 497.902 140.705C496.68 140.792 495.544 140.923 494.496 141.098C493.536 141.273 492.837 141.404 492.4 141.491V199H480.217V132.845ZM566.837 130.88H592.644V141.098H566.837V172.538C566.837 175.944 567.099 178.782 567.623 181.053C568.147 183.236 568.933 184.983 569.981 186.293C571.029 187.516 572.339 188.389 573.911 188.913C575.483 189.437 577.317 189.699 579.413 189.699C583.081 189.699 586.007 189.306 588.19 188.52C590.461 187.647 592.033 187.035 592.906 186.686L595.264 196.773C594.041 197.384 591.902 198.127 588.845 199C585.788 199.961 582.295 200.441 578.365 200.441C573.736 200.441 569.894 199.873 566.837 198.738C563.868 197.515 561.466 195.725 559.632 193.367C557.798 191.009 556.488 188.127 555.702 184.721C555.003 181.228 554.654 177.21 554.654 172.669V111.885L566.837 109.789V130.88ZM620.33 199H608.147V130.88H620.33V199ZM614.173 118.566C611.99 118.566 610.112 117.867 608.54 116.47C607.055 114.985 606.313 113.02 606.313 110.575C606.313 108.13 607.055 106.208 608.54 104.811C610.112 103.326 611.99 102.584 614.173 102.584C616.356 102.584 618.19 103.326 619.675 104.811C621.247 106.208 622.033 108.13 622.033 110.575C622.033 113.02 621.247 114.985 619.675 116.47C618.19 117.867 616.356 118.566 614.173 118.566ZM670.887 200.572C665.385 200.572 660.538 199.699 656.346 197.952C652.241 196.205 648.748 193.76 645.866 190.616C643.071 187.472 640.975 183.76 639.578 179.481C638.181 175.114 637.482 170.311 637.482 165.071C637.482 159.831 638.224 155.028 639.709 150.661C641.281 146.294 643.464 142.539 646.259 139.395C649.054 136.164 652.46 133.675 656.477 131.928C660.582 130.094 665.123 129.177 670.101 129.177C673.158 129.177 676.214 129.439 679.271 129.963C682.328 130.487 685.253 131.317 688.048 132.452L685.297 142.801C683.463 141.928 681.323 141.229 678.878 140.705C676.52 140.181 673.987 139.919 671.28 139.919C664.468 139.919 659.228 142.059 655.56 146.338C651.979 150.617 650.189 156.862 650.189 165.071C650.189 168.739 650.582 172.101 651.368 175.158C652.241 178.215 653.551 180.835 655.298 183.018C657.132 185.201 659.446 186.904 662.241 188.127C665.036 189.262 668.442 189.83 672.459 189.83C675.69 189.83 678.616 189.524 681.236 188.913C683.856 188.302 685.908 187.647 687.393 186.948L689.096 197.166C688.397 197.603 687.393 198.039 686.083 198.476C684.773 198.825 683.288 199.131 681.629 199.393C679.97 199.742 678.179 200.004 676.258 200.179C674.424 200.441 672.634 200.572 670.887 200.572ZM690.88 154.067H723.237V165.464H690.88V154.067ZM749.283 199H737.1V130.88H749.283V199ZM743.126 118.566C740.943 118.566 739.065 117.867 737.493 116.47C736.009 114.985 735.266 113.02 735.266 110.575C735.266 108.13 736.009 106.208 737.493 104.811C739.065 103.326 740.943 102.584 743.126 102.584C745.31 102.584 747.144 103.326 748.628 104.811C750.2 106.208 750.986 108.13 750.986 110.575C750.986 113.02 750.2 114.985 748.628 116.47C747.144 117.867 745.31 118.566 743.126 118.566ZM771.937 126.95C776.915 125.029 781.762 122.583 786.478 119.614C791.194 116.557 795.517 112.758 799.447 108.217H808.093V199H795.91V125.116C794.862 126.077 793.552 127.081 791.98 128.129C790.495 129.177 788.836 130.181 787.002 131.142C785.255 132.103 783.378 133.02 781.369 133.893C779.448 134.766 777.57 135.509 775.736 136.12L771.937 126.95ZM900.376 175.42C900.376 179.088 899.721 182.494 898.411 185.638C897.189 188.695 895.311 191.402 892.778 193.76C890.333 196.031 887.233 197.777 883.477 199C879.722 200.31 875.399 200.965 870.508 200.965C864.832 200.965 860.072 200.179 856.229 198.607C852.474 196.948 849.461 194.895 847.19 192.45C844.92 190.005 843.304 187.341 842.343 184.459C841.383 181.49 840.902 178.695 840.902 176.075C840.902 173.542 841.295 171.141 842.081 168.87C842.955 166.512 844.046 164.329 845.356 162.32C846.754 160.311 848.326 158.521 850.072 156.949C851.906 155.29 853.828 153.849 855.836 152.626C847.278 147.735 842.998 140.53 842.998 131.011C842.998 127.692 843.653 124.548 844.963 121.579C846.273 118.522 848.107 115.859 850.465 113.588C852.911 111.317 855.836 109.527 859.242 108.217C862.648 106.82 866.447 106.121 870.639 106.121C875.53 106.121 879.722 106.863 883.215 108.348C886.709 109.833 889.547 111.754 891.73 114.112C894.001 116.383 895.617 118.915 896.577 121.71C897.625 124.505 898.149 127.212 898.149 129.832C898.149 132.365 897.756 134.766 896.97 137.037C896.272 139.22 895.267 141.273 893.957 143.194C892.735 145.115 891.294 146.818 889.634 148.303C888.062 149.788 886.403 151.098 884.656 152.233C894.962 157.124 900.202 164.853 900.376 175.42ZM853.216 176.206C853.216 177.778 853.478 179.437 854.002 181.184C854.614 182.843 855.618 184.415 857.015 185.9C858.413 187.297 860.203 188.476 862.386 189.437C864.57 190.398 867.321 190.878 870.639 190.878C873.609 190.878 876.185 190.441 878.368 189.568C880.639 188.695 882.473 187.603 883.87 186.293C885.268 184.896 886.316 183.324 887.014 181.577C887.713 179.83 888.062 178.04 888.062 176.206C888.062 173.411 887.538 170.966 886.49 168.87C885.442 166.774 883.914 164.94 881.905 163.368C879.984 161.796 877.626 160.486 874.831 159.438C872.124 158.303 869.024 157.342 865.53 156.556C861.6 158.739 858.544 161.447 856.36 164.678C854.264 167.909 853.216 171.752 853.216 176.206ZM885.966 129.701C885.966 128.391 885.661 126.95 885.049 125.378C884.525 123.806 883.652 122.365 882.429 121.055C881.207 119.658 879.635 118.522 877.713 117.649C875.792 116.688 873.434 116.208 870.639 116.208C867.845 116.208 865.443 116.645 863.434 117.518C861.513 118.391 859.941 119.527 858.718 120.924C857.496 122.234 856.579 123.719 855.967 125.378C855.443 126.95 855.181 128.522 855.181 130.094C855.181 132.015 855.531 133.937 856.229 135.858C856.928 137.779 858.02 139.57 859.504 141.229C860.989 142.888 862.91 144.373 865.268 145.683C867.714 146.993 870.596 148.041 873.914 148.827C877.582 146.644 880.508 144.111 882.691 141.229C884.875 138.26 885.966 134.417 885.966 129.701ZM918.121 132.845C920.915 132.146 924.627 131.404 929.256 130.618C933.884 129.832 939.212 129.439 945.238 129.439C950.652 129.439 955.15 130.225 958.731 131.797C962.311 133.282 965.15 135.421 967.246 138.216C969.429 140.923 970.957 144.198 971.831 148.041C972.704 151.884 973.141 156.119 973.141 160.748V199H960.958V163.368C960.958 159.176 960.652 155.595 960.041 152.626C959.517 149.657 958.6 147.255 957.29 145.421C955.98 143.587 954.233 142.277 952.05 141.491C949.866 140.618 947.159 140.181 943.928 140.181C942.618 140.181 941.264 140.225 939.867 140.312C938.469 140.399 937.116 140.53 935.806 140.705C934.583 140.792 933.448 140.923 932.4 141.098C931.439 141.273 930.74 141.404 930.304 141.491V199H918.121V132.845Z" fill="#7E56C2"/>
</svg>
